<?xml version="1.0" encoding="utf-8"?>
<!-- Generator: Adobe Illustrator 17.0.0, SVG Export Plug-In . SVG Version: 6.00 Build 0)  -->
<!DOCTYPE svg PUBLIC "-//W3C//DTD SVG 1.1//EN" "http://www.w3.org/Graphics/SVG/1.1/DTD/svg11.dtd">
<svg version="1.1" id="Layer_1" xmlns="http://www.w3.org/2000/svg" xmlns:xlink="http://www.w3.org/1999/xlink" x="0px" y="0px"
	 width="1200px" height="1200px" viewBox="0 0 1200 1200" enable-background="new 0 0 1200 1200" xml:space="preserve">
<g>
	<g>
		
			<linearGradient id="SVGID_1_" gradientUnits="userSpaceOnUse" x1="198.7346" y1="280.4232" x2="278.1001" y2="394.8916" gradientTransform="matrix(0.9956 0.0934 -0.0934 0.9956 40.8479 -32.4174)">
			<stop  offset="0" style="stop-color:#B2B473"/>
			<stop  offset="1" style="stop-color:#4E4724"/>
		</linearGradient>
		<polygon fill="url(#SVGID_1_)" points="340.605,276.429 181.197,249.613 174.396,414.065 355.432,369.202 		"/>
		
			<linearGradient id="SVGID_2_" gradientUnits="userSpaceOnUse" x1="633.402" y1="191.4878" x2="926.8651" y2="191.4878" gradientTransform="matrix(-0.9999 -0.0067 -0.0067 0.9999 1361.708 35.1916)">
			<stop  offset="0" style="stop-color:#80261B"/>
			<stop  offset="1" style="stop-color:#C1391D"/>
		</linearGradient>
		<polygon fill="url(#SVGID_2_)" points="706.173,268.618 727.19,206.973 500.887,174.559 433.653,220.434 474.528,267.048 		"/>
		
			<linearGradient id="SVGID_3_" gradientUnits="userSpaceOnUse" x1="945.8915" y1="189.5546" x2="956.1884" y2="227.3079" gradientTransform="matrix(-0.9999 -0.0067 -0.0067 0.9999 1361.708 35.1916)">
			<stop  offset="0" style="stop-color:#BDD02D"/>
			<stop  offset="0.5" style="stop-color:#B1CB22"/>
			<stop  offset="1" style="stop-color:#91C141"/>
		</linearGradient>
		<path fill="url(#SVGID_3_)" d="M508.844,267.284c0,0,20.814-34.188-27.075-55.106c-47.907-20.916-109.805-4.178-154.594,19.545
			c-44.774,23.721-38.049,44.358-27.893,65.02c10.168,20.665,34.173,24.264,51.34,20.949
			C367.815,314.367,508.844,267.284,508.844,267.284z"/>
		
			<linearGradient id="SVGID_4_" gradientUnits="userSpaceOnUse" x1="850.7465" y1="320.6649" x2="871.343" y2="221.1122" gradientTransform="matrix(-0.9999 -0.0067 -0.0067 0.9999 1361.708 35.1916)">
			<stop  offset="0" style="stop-color:#006B8B"/>
			<stop  offset="1" style="stop-color:#0096C0"/>
		</linearGradient>
		<path fill="url(#SVGID_4_)" d="M749.872,340.118c5.766-5.676,59.648-81.566-26.055-91.678
			c-85.727-10.111-251.664,4.02-282.241,15.248c-30.582,11.231-225.38,65.202-206.524,95.829
			c18.842,30.627,39.742,42.192,39.742,42.192L749.872,340.118z"/>
		<path fill="#1A1414" d="M116.225,857.053c-5.187-7.882-8.753-58.875-8.646-74.555c0.105-15.686,27.675-33.796,38.13-32.427
			c10.434,1.382,47.006,5.554,50.84,18.644c3.829,13.09,14.069,44.538,2.26,50.993C187.014,826.158,116.225,857.053,116.225,857.053
			z"/>
		<path fill="#282124" d="M1033.083,614.661c0,0,1.415-50.325,12.177-57.735c10.756-7.425,26.753,1.247,26.753,1.247
			s5.103,37.503-0.352,51.39c-5.438,13.881-8.739,25.631-8.739,25.631L1033.083,614.661z"/>
		<path opacity="0.4" fill="#020100" d="M1097.256,1015.9c0,0-260.833,11.18-534.53,9.336
			c-273.693-1.856-414.191-10.207-445.612-14.123c-31.408-3.904-105.364-6.261,1.961-14.773
			c107.314-8.527,347.783-14.293,488.293-9.652c140.516,4.662,373.408,10.154,427.129,12.138
			C1095.501,1001.097,1184.2,1014.635,1097.256,1015.9z"/>
		<path fill="#0D0D0D" d="M319.514,949.794c5.515,3.742-10.078,55.348-62.152,54.998c-55.41-0.379-81.044,4.874-90.251-2.575
			c-9.201-7.464-17.746-109.239-17.746-109.239s5.892-51.745,13.32-55.378c7.414-3.659,68.455-3.247,75.851-5.052
			c7.419-1.8,62.692,28.171,69.995,41.174C315.852,886.701,319.514,949.794,319.514,949.794z"/>
		<path fill="#E62E30" d="M1130.056,818.249c0,0,30.471-41.305,16.086-89.102c-8.547-28.377-35.683-29.58-42.105-37.951
			c-26.92-35.112-42.481-71.3-59.893-79.182c-17.405-7.87-109.716-126.847-117.267-157.942c-3.755-19.429-7.539-33.018-15.233-42.78
			c-7.688-9.756-55.625-93.501-280.662-95.02c-225.049-1.525-388.462,65.274-456.586,97.794
			c-68.118,32.51-62.465,55.84-62.465,55.84S46.558,669.296,50.142,713.941c3.566,44.642,23.969,186.411,70.461,194.491
			c8.136-54.279,8.136-54.279,8.136-54.279s-19.226-27.29-5.39-64.062c13.824-36.76,44.794-11.159,65.796,41.377
			c20.984,52.515,30.758,101.19,98.605,109.397c67.847,8.222,152.627,18.226,168.168,14.448c15.55-3.769,25.267-5.653,29.191-11.451
			c3.906-5.793,107.57-129.243,107.57-129.243l50.307,21.685l471.389,5.115L1130.056,818.249z"/>
		<path fill="#020100" d="M493.501,918.403c0,0-13.573-4.346-29.23-68.802c-15.669-64.48-5.551-108.164,21.423-129.423
			c26.95-21.285,15.027-22.032,36.485-21.882c21.459,0.141,23.148-5.351,55.255,8.273c32.089,13.627,47.817,33.874,50.092,69.861
			c2.268,35.987-3.82,19.351-14.54,19.28C602.247,795.638,493.501,918.403,493.501,918.403z"/>
		
			<linearGradient id="SVGID_5_" gradientUnits="userSpaceOnUse" x1="56.0445" y1="590.0483" x2="735.3224" y2="467.2002" gradientTransform="matrix(0.9956 0.0934 -0.0934 0.9956 40.8479 -32.4174)">
			<stop  offset="0.3939" style="stop-color:#E62530"/>
			<stop  offset="0.5338" style="stop-color:#E83D37"/>
			<stop  offset="0.7636" style="stop-color:#ED6847"/>
			<stop  offset="1" style="stop-color:#D5EDF9"/>
		</linearGradient>
		<path fill="url(#SVGID_5_)" d="M556.262,613.691c0.012-2.763,13.603-96.99-18.331-161.014
			C506,388.66,491.394,360.821,421.07,367.736c-70.318,6.924-237.169,66.831-313.384,122.716
			c-4.677,10.145-55.766,180.861-55.026,208.607c-0.14,20.339-0.14,20.339-0.14,20.339s115.225-83.359,501.669-73.349
			C556.137,631.267,556.262,613.691,556.262,613.691z"/>
		<path fill="#0D0D0D" d="M1053.24,961.964c0,0-0.334,48.086-85.392,45.669c-61.033,3.28-67.999-61.49-67.999-61.49L1053.24,961.964
			z"/>
		<path fill="#0D0D0D" d="M611.398,742.532c-3.378-2.644-65.361,5.984-76.063,5.912c-10.703-0.078-43.92,2.913-47.507,57.493
			c-3.584,54.593,2.316,132.781,22.482,159.692c20.161,26.911,39.255,53.796,68.151,53.996c28.908,0.191,89.905,5.951,91.475-67.91
			C671.512,877.849,658.254,779.253,611.398,742.532z"/>
		<path fill="#280D00" d="M1044.144,612.014c5.778,5.856-185.892-51.694-399.493-22.103c-52.419,5.464-77.74,18.883-77.74,18.883
			s10.171-69.777-8.864-124.23c-19.029-54.458-34.435-72.025-34.435-72.025s-21.163-25.35,23.488-28.934
			c44.642-3.579,221.354-27.61,376.005,52.986C959.509,504.742,1022.947,590.523,1044.144,612.014z"/>
		<path fill="#280D00" d="M478.952,400.733c5.79,3.919,59.672,87.586,61.212,147.732c1.528,60.156-14.093,75.565-45.14,75.353
			c-31.036-0.206-102.667-22.026-118.076-37.662c-15.418-15.62-15.263-38.906-9.207-73.783
			c6.053-34.876,18.045-87.174,18.045-87.174s9.022-28.358,42.863-26.878C455.106,399.479,478.952,400.733,478.952,400.733z"/>
		
			<linearGradient id="SVGID_6_" gradientUnits="userSpaceOnUse" x1="915.4746" y1="568.1901" x2="907.92" y2="391.906" gradientTransform="matrix(-0.9999 -0.0067 -0.0067 0.9999 1361.708 35.1916)">
			<stop  offset="0" style="stop-color:#707070"/>
			<stop  offset="0.0164" style="stop-color:#6E6E6E"/>
			<stop  offset="0.4581" style="stop-color:#424242"/>
			<stop  offset="0.8006" style="stop-color:#262626"/>
			<stop  offset="1" style="stop-color:#1C1C1C"/>
		</linearGradient>
		<path fill="url(#SVGID_6_)" d="M512.103,467.373l-46.039,136.848c0,0-67.826-12.093-79.248-43.212
			c-11.439-31.122,7.506-142.396,7.506-142.396s7.819-19.328,36.533-17.498c19.351,1.227,47.907,5.65,47.907,5.65L512.103,467.373z"
			/>
		
			<linearGradient id="SVGID_7_" gradientUnits="userSpaceOnUse" x1="1150.3364" y1="697.8943" x2="1154.035" y2="490.7693" gradientTransform="matrix(-0.9999 -0.0067 -0.0067 0.9999 1361.708 35.1916)">
			<stop  offset="0" style="stop-color:#707070"/>
			<stop  offset="0.0164" style="stop-color:#6E6E6E"/>
			<stop  offset="0.4581" style="stop-color:#424242"/>
			<stop  offset="0.8006" style="stop-color:#262626"/>
			<stop  offset="1" style="stop-color:#1C1C1C"/>
		</linearGradient>
		<path fill="url(#SVGID_7_)" d="M350.338,435.693c0,0-22.73,78.435-23.867,111.725c-2.964,25.876-4.017,47.138-4.148,66.551
			c-0.131,19.42-14.929,19.319-22.354,22.957c-7.434,3.65-161.076,24.807-215.761,45.707c-15.761,5.44-26.857,4.435-25.851-5.727
			c0.996-10.165,30.525-138.496,40.807-156c10.303-17.495,25.124-22.019,40.891-30.235c15.782-8.211,92.773-43.753,140.015-56.374
			C327.321,421.672,357.927,408,350.338,435.693z"/>
		<path fill="#912E1E" d="M497.641,394.152c0,0-41.446-23.404-140.57,3.671c-99.133,27.075-218.802,83.59-256.884,110.14
			c22.324-19.259,155.988-96.023,271.762-122.988C409.01,374.138,478.372,371.822,497.641,394.152z"/>
		
			<linearGradient id="SVGID_8_" gradientUnits="userSpaceOnUse" x1="381.1359" y1="858.9883" x2="345.6512" y2="700.7877" gradientTransform="matrix(0.9956 0.0934 -0.0934 0.9956 40.8479 -32.4174)">
			<stop  offset="0.3939" style="stop-color:#E62530"/>
			<stop  offset="0.5338" style="stop-color:#E83D37"/>
			<stop  offset="0.7636" style="stop-color:#ED6847"/>
			<stop  offset="1" style="stop-color:#D5EDF9"/>
		</linearGradient>
		<path fill="url(#SVGID_8_)" d="M457.591,710.129c-1.88,5.53-26.087,29.407-20.661,46.09c5.45,16.68,23.676,55.64,7.007,59.221
			c-16.662,3.593-200.194,19.787-205.402,17.108c-21.139-10.897-8.772-37.873-19.238-61.293
			c-7.637-17.119-42.475-25.887-25.885-30.543C207.769,736.674,457.591,710.129,457.591,710.129z"/>
		
			<linearGradient id="SVGID_9_" gradientUnits="userSpaceOnUse" x1="1007.1344" y1="757.9971" x2="1008.5519" y2="911.0251" gradientTransform="matrix(-0.9999 -0.0067 -0.0067 0.9999 1361.708 35.1916)">
			<stop  offset="0" style="stop-color:#E7382F"/>
			<stop  offset="0.235" style="stop-color:#D3322A"/>
			<stop  offset="0.7151" style="stop-color:#A42620"/>
			<stop  offset="1" style="stop-color:#881F1B"/>
		</linearGradient>
		<path fill="url(#SVGID_9_)" d="M445.695,828.393c0,0,10.834,38.915,18.086,59.311c7.267,20.393,39.972,65.677,15.875,72.917
			c-24.091,7.238-90.266-10.538-143.898-10.905c-53.628-0.364-93.424-0.872-107.063-28.466
			c-12.261-24.813-21.882-46.371-21.882-46.371s21.999,29.735,29.523,9.437c7.545-20.288-7.136-37.035,16.892-36.867
			C277.271,847.61,445.695,828.393,445.695,828.393z"/>
		<path fill="#0D0D0D" d="M118.392,822.487c0,0-40.687,1.573-53.617-0.361c-2.014,22.178,14.254,79.615,30.86,85.276
			c16.6,5.671,24.968,1.03,24.968,1.03S131.1,857.716,118.392,822.487z"/>
		
			<linearGradient id="SVGID_10_" gradientUnits="userSpaceOnUse" x1="873.3163" y1="747.6816" x2="859.8257" y2="539.557" gradientTransform="matrix(0.9956 0.0934 -0.0934 0.9956 40.8479 -32.4174)">
			<stop  offset="0.3939" style="stop-color:#E62530"/>
			<stop  offset="0.5338" style="stop-color:#E83D37"/>
			<stop  offset="0.7636" style="stop-color:#ED6847"/>
			<stop  offset="1" style="stop-color:#D5EDF9"/>
		</linearGradient>
		<path fill="url(#SVGID_10_)" d="M1027.842,613.05c34.519,7.99,45.442,31.358,70.255,76.263
			c-20.199-11.571-55.685,16.065-55.685,16.065l-237.428-6.787c0,0-33.635-74.761-213.613-95.519
			C689.818,585.213,859.242,574.006,1027.842,613.05z"/>
		
			<linearGradient id="SVGID_11_" gradientUnits="userSpaceOnUse" x1="424.569" y1="707.0994" x2="418.6553" y2="655.3497" gradientTransform="matrix(0.9956 0.0934 -0.0934 0.9956 40.8479 -32.4174)">
			<stop  offset="0.0061" style="stop-color:#E62530"/>
			<stop  offset="0.3821" style="stop-color:#E83D37"/>
			<stop  offset="1" style="stop-color:#ED6847"/>
		</linearGradient>
		<path fill="url(#SVGID_11_)" d="M738.483,812.295c0,0,5.044,2.901-14.517-1.785c-32.77-7.864-30.006-57.553-24.431-84.578
			c9.801-47.54-28.448-101.846-104.386-114.136c-14.994-1.164-43.956,6.127-39.766,19.002c4.208,12.885,67.271,27.234-33.348,25.47
			c-100.64-1.755-297.674,0.123-430.776,50.629c-25.762,10.53-37.76,42.571-30.308,47.97c7.47,5.408,106.251-36.754,251.96-49.689
			c145.706-12.935,239.029-39.061,289.12-4.474c50.092,34.614,55.064,86.243,58.084,110.898
			C691.161,813.954,738.483,812.295,738.483,812.295z"/>
		<path fill="#3E3935" d="M624.798,816.506c0,0-14.439-80.411-47.507-97.754c-33.092-17.373-75.934-13.374-88.92,7.951
			c-13.009,21.339-45.645,97.139,13.561,208.891c17.979,34.381,24.395,33.358,17.979,34.381c-6.425,1.035-131.109-16.6-131.109-16.6
			s103.846,5.259,82.312-51.172c-24.028-63.003-25.78-144.731,3.4-185.227c29.17-40.476,117.998-34.534,149.783,16.003
			c25.392,44.075,32.62,83.748,32.62,83.748l473.138,1.522c0,0,20.42,6.101,13.848,26.389c-6.56,20.304-16.385,48.068-24.945,49.092
			c-8.577,1.003-10.773,7.426-10.773,7.426s-17.412,42.711-36.746,52.208c-19.345,9.503-33.295,13.699-45.059,13.615
			c-11.783-0.084-338.347-1.208-338.347-1.208s-32.113-1.298-35.229-14.168c-3.128-12.866-27.033-117.962-27.033-117.962
			S619.426,819.669,624.798,816.506z"/>
		<path fill="#020100" d="M1109.904,896.879l-31.027-2.358c0,0-10.732,2.083-12.899,6.351c-2.173,4.25,37.479,0.251,37.479,0.251
			L1109.904,896.879z"/>
		<path fill="#020100" d="M861.594,883.412c0,0,6.363,10.747-12.917,9.55c-19.262-1.194-216.28-0.391-216.28-0.391l5.3,8.607
			l210.926,0.355C848.623,901.534,866.864,896.299,861.594,883.412z"/>
		
			<linearGradient id="SVGID_12_" gradientUnits="userSpaceOnUse" x1="331.2561" y1="885.3742" x2="439.4066" y2="885.3742" gradientTransform="matrix(-0.9999 -0.0067 -0.0067 0.9999 1361.708 35.1916)">
			<stop  offset="0" style="stop-color:#383838"/>
			<stop  offset="0.7524" style="stop-color:#242424"/>
			<stop  offset="1" style="stop-color:#1C1C1C"/>
		</linearGradient>
		<polygon fill="url(#SVGID_12_)" points="916.252,941.604 1019.438,942.323 1024.714,894.159 916.58,893.44 		"/>
		<path fill="#020100" d="M608.753,974.854c1.104-4.277,20.844-73.732-11.836-148.902c-32.693-75.174-70.208-69.002-84.172-62.663
			c-13.959,6.318-37.757,41.491-19.244,155.114c12.371,69.676,58.237,95.692,81.814,91.558
			C598.893,1005.848,605.441,987.7,608.753,974.854z"/>
		
			<linearGradient id="SVGID_13_" gradientUnits="userSpaceOnUse" x1="788.2133" y1="859.7313" x2="828.0912" y2="859.7313" gradientTransform="matrix(-0.9999 -0.0067 -0.0067 0.9999 1361.708 35.1916)">
			<stop  offset="0" style="stop-color:#B5B5B5"/>
			<stop  offset="0.3333" style="stop-color:#A1A1A1"/>
			<stop  offset="1" style="stop-color:#6E6E6E"/>
		</linearGradient>
		<path fill="url(#SVGID_13_)" d="M567.138,912.315c0,0,3.766-25.303-7.724-51.656c-7.509-17.203-28.908-25.354-31.14,9.869
			c-1.958,30.922,7.646,44.86,13.084,54.948C547.016,935.984,565.424,938.372,567.138,912.315z"/>
		<path fill="#EF7751" d="M395.344,953.754c-57.768-138.835-60.469-284.473-52.483-381.481
			c8.667-105.099,31.275-178.338,31.504-179.058l1.642-0.287c-0.227,0.726-22.667,74.646-31.301,179.547
			c-7.972,96.787-4.653,242.616,52.963,381.088L395.344,953.754z"/>
		<path fill="#020100" d="M163.648,790.051c0,0-46.752-19.348-45.534,73.114c1.238,92.481,32.385,135.225,48.996,139.051
			c16.618,3.805,51.683-43.595,46.6-113.901c-32.08-80.77-38.076-87.419-38.076-87.419L163.648,790.051z"/>
		
			<linearGradient id="SVGID_14_" gradientUnits="userSpaceOnUse" x1="1181.6273" y1="890.815" x2="1205.3611" y2="890.815" gradientTransform="matrix(-0.999 -0.0154 0.0024 0.914 1353.2664 104.2108)">
			<stop  offset="0" style="stop-color:#B5B5B5"/>
			<stop  offset="0.3333" style="stop-color:#A1A1A1"/>
			<stop  offset="1" style="stop-color:#6E6E6E"/>
		</linearGradient>
		<path fill="url(#SVGID_14_)" d="M174.309,899.182c2.178,19.447-1.075,35.593-7.264,36.071
			c-6.184,0.468-12.965-14.908-15.146-34.354c-2.179-19.456,1.068-35.617,7.243-36.08
			C165.344,864.344,172.127,879.726,174.309,899.182z"/>
		
			<linearGradient id="SVGID_15_" gradientUnits="userSpaceOnUse" x1="563.6147" y1="503.1518" x2="540.6141" y2="372.2146" gradientTransform="matrix(-0.9999 -0.0067 -0.0067 0.9999 1361.708 35.1916)">
			<stop  offset="0" style="stop-color:#707070"/>
			<stop  offset="0.0164" style="stop-color:#6E6E6E"/>
			<stop  offset="0.4581" style="stop-color:#424242"/>
			<stop  offset="0.8006" style="stop-color:#262626"/>
			<stop  offset="1" style="stop-color:#1C1C1C"/>
		</linearGradient>
		<path fill="url(#SVGID_15_)" d="M1031.459,601.18c0,0-74.445-124.074-99.432-147.565c-61.887-29.52-121.194-52.71-321.006-55.996
			c-54.324,1.57-48.707,30.71-37.252,57.956c11.454,27.233,27.117,79.298,27.117,79.298s11.078,43.941,73.18,38.542
			C736.197,568.023,889.672,557.165,1031.459,601.18z"/>
		<path fill="#280D00" d="M83.977,567.85c109.251-60.394,194.826-64.155,247.606-56.556c-2.752,13.791-4.79,26.744-5.112,36.124
			c-2.964,25.876-4.017,47.138-4.148,66.551c-0.131,19.42-14.929,19.319-22.354,22.957c-7.434,3.65-161.076,24.807-215.761,45.707
			c-15.761,5.44-26.857,4.435-25.851-5.727C59.009,670.182,72.165,611.704,83.977,567.85z"/>
		<path fill="#280D00" d="M384.328,527.013c0,0,88.807,15.674,149.872,67.115c-48.247,5.659-87.293,5.396-114.231-6.802
			c-26.95-12.201-32.91-19.742-34.158-55.789"/>
		<path fill="#282124" d="M497.267,576.514c0,0,7.966-55.243-8.741-69.455c-16.713-14.215-32.43-13.224-49.83-6.84
			c-4.919,5.927-17.221,61.143-11.09,117.022c14.57,8.234,24.282,15.886,29.731,12.126c5.441-3.749,10.377-11.308,20.674-10.159
			c10.284,1.158,10.284,1.158,10.284,1.158s11.896,4.963,8.676-0.484C493.77,614.444,497.267,576.514,497.267,576.514z"/>
		
			<linearGradient id="SVGID_16_" gradientUnits="userSpaceOnUse" x1="858.8219" y1="520.4986" x2="888.8467" y2="520.4986" gradientTransform="matrix(-0.9999 -0.0067 -0.0067 0.9999 1361.708 35.1916)">
			<stop  offset="0" style="stop-color:#707070"/>
			<stop  offset="0.0164" style="stop-color:#6E6E6E"/>
			<stop  offset="0.4581" style="stop-color:#424242"/>
			<stop  offset="0.8006" style="stop-color:#262626"/>
			<stop  offset="1" style="stop-color:#1C1C1C"/>
		</linearGradient>
		<path fill="url(#SVGID_16_)" d="M460.376,500.898c0,0-1.137,88.911,3.14,97.073c12.976,3.877,18.513-11.795,26.69-18.256
			c3.906-15.698,0.949-60.173-1.722-65.611C485.798,508.664,474.487,499.376,460.376,500.898z"/>
		<path fill="#0D0D0D" d="M481.303,613.814c0,0-11.311-11.469-2.02-24.41c9.308-12.947,20.122-9.076,28.254-9.025
			c8.145,0.057,9.264-6.444,16.319-5.843c0,0,12.308,3.889,10.344,19.593C532.243,609.841,532.977,619.407,481.303,613.814z"/>
		<path fill="#6D1C17" d="M393.443,953.844c-57.762-138.827-60.322-283.939-52.33-380.941
			c8.652-105.099,31.262-178.336,31.489-179.061l2.173-0.759c-0.23,0.729-23.192,75.12-31.826,180.016
			c-7.969,96.793-4.933,242.207,52.664,380.681L393.443,953.844z"/>
		<path fill="#EF7751" d="M539.382,688.838l2.065-0.991c0.078,0,7.783,0.266,11.46-3.65c1.51-1.621,2.131-3.782,1.856-6.429
			c-3.17-34.086,2.668-59.499,2.722-59.75l0.436-0.078c-0.066,0.251-4.453,25.888-1.314,59.645c0.334,3.197-0.46,5.852-2.364,7.876
			C549.988,690.002,539.728,688.85,539.382,688.838z"/>
		<path fill="#6D1C17" d="M539.155,688.566l0.388-0.101c0.066,0,7.48-1.471,11.151-5.393c1.516-1.621,2.148-3.782,1.874-6.429
			c-3.181-34.086,4.31-59.192,4.375-59.448l0.131,0.128c-0.065,0.251-5.814,25.38-2.674,59.137c0.347,3.197-0.453,5.85-2.357,7.882
			C547.774,688.883,539.507,688.587,539.155,688.566z"/>
		
			<linearGradient id="SVGID_17_" gradientUnits="userSpaceOnUse" x1="173.6785" y1="783.0642" x2="298.2528" y2="941.0632" gradientTransform="matrix(0.9956 0.0934 -0.0934 0.9956 40.8479 -32.4174)">
			<stop  offset="0" style="stop-color:#E7382F"/>
			<stop  offset="0.235" style="stop-color:#D3322A"/>
			<stop  offset="0.7151" style="stop-color:#A42620"/>
			<stop  offset="1" style="stop-color:#881F1B"/>
		</linearGradient>
		<path fill="url(#SVGID_17_)" d="M156.814,753.39c53.733,11.989,65.966,82.1,65.966,82.1c9.67,17.206,16.23,54.189-1.265,46.904
			c-9.183-3.823-34.877-96.065-69.527-114.366c0,0-27.83-10.756-36.596,29.173C111.707,783.065,127.133,745.541,156.814,753.39z"/>
		
			<linearGradient id="SVGID_18_" gradientUnits="userSpaceOnUse" x1="595.4638" y1="293.0954" x2="599.4807" y2="273.6798" gradientTransform="matrix(-0.9999 -0.0067 -0.0067 0.9999 1361.708 35.1916)">
			<stop  offset="0" style="stop-color:#7A5048"/>
			<stop  offset="1" style="stop-color:#291D18"/>
		</linearGradient>
		<path fill="url(#SVGID_18_)" d="M771.587,330.263l9.455-16.716c0,0-9.282-5.655-20.456-7.59
			c-11.186-1.949-15.048,18.534-15.048,18.534L771.587,330.263z"/>
		
			<linearGradient id="SVGID_19_" gradientUnits="userSpaceOnUse" x1="1024.3242" y1="328.6064" x2="1031.5679" y2="293.5939" gradientTransform="matrix(-0.9999 -0.0067 -0.0067 0.9999 1361.708 35.1916)">
			<stop  offset="0" style="stop-color:#7A5048"/>
			<stop  offset="1" style="stop-color:#291D18"/>
		</linearGradient>
		<path fill="url(#SVGID_19_)" d="M465.88,324.461c0,0,17.012-35.307-31.552-22.584c-48.564,12.726-222.369,73.075-229.842,76.758
			c-7.485,3.671-3.868,18.611-3.868,18.611S430.352,337.277,465.88,324.461z"/>
		
			<linearGradient id="SVGID_20_" gradientUnits="userSpaceOnUse" x1="703.8679" y1="262.4261" x2="731.6516" y2="128.1335" gradientTransform="matrix(-0.9999 -0.0067 -0.0067 0.9999 1361.708 35.1916)">
			<stop  offset="0" style="stop-color:#7A5048"/>
			<stop  offset="1" style="stop-color:#291D18"/>
		</linearGradient>
		<path fill="url(#SVGID_20_)" d="M751.185,317.074c-1.82-7.476-151.929-140.874-207.882-137.516
			c11.144,5.676,196.959,139.316,202.51,144.951C751.377,330.138,751.185,317.074,751.185,317.074z"/>
		
			<linearGradient id="SVGID_21_" gradientUnits="userSpaceOnUse" x1="871.2195" y1="260.64" x2="890.925" y2="165.3934" gradientTransform="matrix(-0.9999 -0.0067 -0.0067 0.9999 1361.708 35.1916)">
			<stop  offset="0" style="stop-color:#7A5048"/>
			<stop  offset="1" style="stop-color:#291D18"/>
		</linearGradient>
		<polyline fill="url(#SVGID_21_)" points="470.404,205.168 506.893,322.873 488.249,324.613 459.26,199.509 		"/>
		
			<linearGradient id="SVGID_22_" gradientUnits="userSpaceOnUse" x1="1076.5814" y1="314.2265" x2="1098.0962" y2="210.2352" gradientTransform="matrix(-0.9999 -0.0067 -0.0067 0.9999 1361.708 35.1916)">
			<stop  offset="0" style="stop-color:#7A5048"/>
			<stop  offset="1" style="stop-color:#291D18"/>
		</linearGradient>
		<polygon fill="url(#SVGID_22_)" points="352.83,223.021 224.896,393.684 200.618,397.247 339.74,228.521 		"/>
		
			<linearGradient id="SVGID_23_" gradientUnits="userSpaceOnUse" x1="884.2719" y1="294.5853" x2="897.3718" y2="231.2665" gradientTransform="matrix(-0.9999 -0.0067 -0.0067 0.9999 1361.708 35.1916)">
			<stop  offset="0" style="stop-color:#7A5048"/>
			<stop  offset="1" style="stop-color:#291D18"/>
		</linearGradient>
		<path fill="url(#SVGID_23_)" d="M171.319,320.611c-5.602-0.042,221.981-17.146,356.268-23.697
			c134.278-6.545,242.502-18.868,242.502-18.868l-0.078,11.186c0,0-412.299,30.242-580.508,36.471
			C161.914,326.726,185.764,320.703,171.319,320.611z"/>
		
			<linearGradient id="SVGID_24_" gradientUnits="userSpaceOnUse" x1="908.727" y1="693.251" x2="837.0268" y2="716.2339" gradientTransform="matrix(0.9956 0.0934 -0.0934 0.9956 40.8479 -32.4174)">
			<stop  offset="0" style="stop-color:#40BEDE"/>
			<stop  offset="0.0036" style="stop-color:#3EBDDE"/>
			<stop  offset="0.1487" style="stop-color:#009ED2"/>
			<stop  offset="0.2643" style="stop-color:#008DCA"/>
			<stop  offset="0.3352" style="stop-color:#0086C7"/>
			<stop  offset="0.4475" style="stop-color:#0089C8"/>
			<stop  offset="0.5439" style="stop-color:#0090CC"/>
			<stop  offset="0.6345" style="stop-color:#009DD2"/>
			<stop  offset="0.7209" style="stop-color:#06B0D9"/>
			<stop  offset="0.7692" style="stop-color:#40BEDE"/>
			<stop  offset="1" style="stop-color:#D5EDF9"/>
		</linearGradient>
		<path opacity="0.6" fill="url(#SVGID_24_)" d="M785.812,714.573c0,0,26.872,16.985,25.678,49.519
			c-1.181,32.543-25.535,48.447-25.535,48.447s31.439-11.976,30.74-49.351C816.015,725.804,791.87,714.675,785.812,714.573z"/>
		<g>
			<path fill="#2A4656" d="M809.043,768.993c2.728-29.111-18.426-54.903-47.244-57.61c-28.825-2.706-54.401,18.701-57.135,47.812
				c-2.734,29.117,18.421,54.9,47.245,57.607C780.72,819.502,806.309,798.1,809.043,768.993z"/>
			
				<linearGradient id="SVGID_25_" gradientUnits="userSpaceOnUse" x1="781.5779" y1="771.5565" x2="792.4233" y2="663.0951" gradientTransform="matrix(0.9956 0.0934 -0.0934 0.9956 40.8479 -32.4174)">
				<stop  offset="0" style="stop-color:#B5B5B5"/>
				<stop  offset="0.3333" style="stop-color:#A1A1A1"/>
				<stop  offset="1" style="stop-color:#6E6E6E"/>
			</linearGradient>
			<path fill="url(#SVGID_25_)" d="M805.861,768.092c2.596-27.649-17.722-52.169-45.37-54.76
				c-27.649-2.596-52.169,17.716-54.76,45.367c-2.59,27.643,17.716,52.163,45.365,54.76
				C778.75,816.049,803.259,795.743,805.861,768.092z"/>
			
				<linearGradient id="SVGID_26_" gradientUnits="userSpaceOnUse" x1="784.8301" y1="771.5275" x2="795.6688" y2="663.1321" gradientTransform="matrix(0.9956 0.0934 -0.0934 0.9956 40.8479 -32.4174)">
				<stop  offset="0" style="stop-color:#737373"/>
				<stop  offset="0.1501" style="stop-color:#5A5A5A"/>
				<stop  offset="0.3569" style="stop-color:#3F3F3F"/>
				<stop  offset="0.5667" style="stop-color:#2C2C2C"/>
				<stop  offset="0.7796" style="stop-color:#202020"/>
				<stop  offset="1" style="stop-color:#1C1C1C"/>
			</linearGradient>
			<path fill="url(#SVGID_26_)" d="M805.861,768.092c2.596-27.649-16.277-52.035-42.135-54.458s-48.94,18.02-51.524,45.677
				c-2.596,27.643,16.265,52.026,42.123,54.449C780.195,816.187,803.259,795.743,805.861,768.092z"/>
			
				<radialGradient id="SVGID_27_" cx="806.4545" cy="726.0997" r="42.7363" gradientTransform="matrix(0.9956 0.0934 -0.0934 0.9956 40.8479 -32.4174)" gradientUnits="userSpaceOnUse">
				<stop  offset="0" style="stop-color:#FFFAEB"/>
				<stop  offset="0.1721" style="stop-color:#FAF5E7"/>
				<stop  offset="0.4181" style="stop-color:#E9E6DC"/>
				<stop  offset="0.7069" style="stop-color:#CFCECB"/>
				<stop  offset="0.9212" style="stop-color:#B8BABB"/>
			</radialGradient>
			<path fill="url(#SVGID_27_)" d="M801.784,767.262c2.268-24.261-14.295-45.669-36.99-47.797
				c-22.694-2.128-42.947,15.821-45.221,40.082c-2.281,24.27,14.284,45.672,36.978,47.806
				C779.245,809.48,799.498,791.531,801.784,767.262z"/>
			<path fill="#9EA2A5" d="M736.317,732.952c-1.027,1.376,13.144-6.294,20.557-5.181c7.425,1.11,11.789,3.611,14.349,3.014
				c2.567-0.59,8.649-2.952,8.649-2.952s-10.362-5.566-19.143-5.554C751.949,722.294,741.581,725.92,736.317,732.952z"/>
			<path fill="#9EA2A5" d="M737.314,793.671c-2.256,1.152,12.565,8.7,17.495,9.58c4.936,0.892,23.78,0.558,34.22-12.672
				c-10.076,4.903-16.779,5.109-23.966,1.51C757.871,788.491,742.148,791.197,737.314,793.671z"/>
		</g>
		<g>
			<path opacity="0.6" fill="#00577C" d="M1100.157,720.357c0,0-24.252,10.64-28.467,39.41
				c-4.22,28.768,12.774,46.615,12.774,46.615s-24.939-14.872-18.438-47.594C1072.514,726.072,1095.28,719.477,1100.157,720.357z"/>
			<path fill="#2A4656" d="M1149.556,771.273c2.411-25.664-12.469-48.048-33.223-49.996c-20.754-1.946-39.527,17.28-41.932,42.944
				c-2.411,25.664,12.457,48.056,33.211,49.996C1128.372,816.166,1147.145,796.931,1149.556,771.273z"/>
			
				<linearGradient id="SVGID_28_" gradientUnits="userSpaceOnUse" x1="1136.3619" y1="736.5898" x2="1145.9081" y2="641.1221" gradientTransform="matrix(0.9956 0.0934 -0.0934 0.9956 40.8479 -32.4174)">
				<stop  offset="0" style="stop-color:#B5B5B5"/>
				<stop  offset="0.3333" style="stop-color:#A1A1A1"/>
				<stop  offset="1" style="stop-color:#6E6E6E"/>
			</linearGradient>
			<path fill="url(#SVGID_28_)" d="M1147.27,770.536c2.286-24.38-11.992-45.66-31.904-47.522
				c-19.913-1.872-37.903,16.373-40.195,40.759c-2.286,24.371,11.998,45.648,31.91,47.519
				C1126.987,813.157,1144.99,794.907,1147.27,770.536z"/>
			
				<linearGradient id="SVGID_29_" gradientUnits="userSpaceOnUse" x1="1138.7017" y1="736.5757" x2="1148.244" y2="641.1458" gradientTransform="matrix(0.9956 0.0934 -0.0934 0.9956 40.8479 -32.4174)">
				<stop  offset="0" style="stop-color:#737373"/>
				<stop  offset="0.1501" style="stop-color:#5A5A5A"/>
				<stop  offset="0.3569" style="stop-color:#3F3F3F"/>
				<stop  offset="0.5667" style="stop-color:#2C2C2C"/>
				<stop  offset="0.7796" style="stop-color:#202020"/>
				<stop  offset="1" style="stop-color:#1C1C1C"/>
			</linearGradient>
			<path fill="url(#SVGID_29_)" d="M1147.27,770.536c2.286-24.38-10.959-45.561-29.583-47.305
				c-18.617-1.749-35.569,16.6-37.861,40.977c-2.286,24.371,10.953,45.555,29.582,47.305
				C1128.026,813.253,1144.99,794.907,1147.27,770.536z"/>
			
				<radialGradient id="SVGID_30_" cx="1202.8812" cy="696.4005" r="37.6775" gradientTransform="matrix(0.8131 0.0763 -0.0934 0.9956 212.6887 -16.1467)" gradientUnits="userSpaceOnUse">
				<stop  offset="0" style="stop-color:#FFFAEB"/>
				<stop  offset="0.1721" style="stop-color:#FAF5E7"/>
				<stop  offset="0.4181" style="stop-color:#E9E6DC"/>
				<stop  offset="0.7069" style="stop-color:#CFCECB"/>
				<stop  offset="0.9212" style="stop-color:#B8BABB"/>
			</radialGradient>
			<path fill="url(#SVGID_30_)" d="M1144.333,769.867c2.012-21.402-9.61-39.989-25.959-41.524
				c-16.349-1.531-31.224,14.573-33.235,35.969c-2.005,21.393,9.623,39.986,25.972,41.514
				C1127.453,807.364,1142.328,791.26,1144.333,769.867z"/>
			<path fill="#9EA2A5" d="M1134.532,793.08c0.752-1.221-9.574,5.739-14.916,4.874c-5.337-0.869-8.441-3.002-10.297-2.438
				c-1.868,0.561-6.285,2.728-6.285,2.728s7.39,4.748,13.723,4.602C1123.089,802.705,1130.623,799.348,1134.532,793.08z"/>
			<path fill="#9EA2A5" d="M1134.723,739.652c1.642-1.051-8.936-7.47-12.481-8.178c-3.546-0.701-17.143-0.137-24.879,11.679
				c7.342-4.474,12.183-4.757,17.328-1.695C1119.813,744.517,1131.208,741.899,1134.723,739.652z"/>
		</g>
		<g>
			<path fill="#020100" d="M803.737,720.011c0,0,28.753,15.108,25.374,51.011c-2.548,27.305-22.581,40.664-22.581,40.664
				l286.816,0.534c0,0-37.228-17.558-30.37-54.999c2.537-12.654,17.351-27.672,23.816-32.337
				C1061.555,729.55,1013.182,730.869,803.737,720.011z"/>
			<path fill="#141414" d="M1081.629,725.455c-1.218,1.325-25.189,20.632-22.903,43.839c3.085,25.613,20.975,37.865,28.854,42.944
				c3.109-0.284,5.228,0,5.228,0s-31.713-17.608-30.8-47.773c0.656-22.109,25.093-39.73,25.093-39.73L1081.629,725.455z"/>
			<g>
				<path fill="#141414" d="M1070.706,734.701c-66.405,4.873-252.954-6.39-254.846-6.513l-0.138,2.892
					c1.875,0.11,188.692,11.398,255.342,6.512L1070.706,734.701z"/>
				<path fill="#141414" d="M1062.313,749.152c-64.275,3.999-234.492-6.112-236.211-6.211l-0.137,2.889
					c1.707,0.102,172.164,10.222,236.659,6.208L1062.313,749.152z"/>
				<path fill="#141414" d="M1058.207,761.836c-55.625,3.942-152.968-0.43-199.746-2.525c-14.97-0.674-24.855-1.125-28.114-1.08
					l0.131,2.892c3.145-0.038,13.531,0.43,27.893,1.075c46.844,2.107,144.336,6.485,200.176,2.525L1058.207,761.836z"/>
				<path fill="#141414" d="M1058.845,779.266l-0.34-2.886c-67.641,4.757-227.108-2.173-228.707-2.244l-0.09,2.892
					C831.319,777.099,990.996,784.04,1058.845,779.266z"/>
				<path fill="#141414" d="M1067.662,793.215c-44.212,4.435-241.744-1.065-243.738-1.125l-0.018,2.901
					c1.988,0.051,199.77,5.566,244.209,1.104L1067.662,793.215z"/>
			</g>
		</g>
	</g>
</g>
</svg>
